<svg id="_0_star" data-name="0_star" xmlns="http://www.w3.org/2000/svg" width="3140" height="692" viewBox="0 0 3140 692">
  <path id="Empty" d="M19035.225,18527.006h-306.25c-15.93-93.465-52.979-314.945-52.979-352.879a207.666,207.666,0,0,1,4.182-41.518,205.059,205.059,0,0,1,30.967-73.658,206.412,206.412,0,0,1,90.543-74.633,204.469,204.469,0,0,1,38.631-12,207.75,207.75,0,0,1,64.953-2.854l28.443-102.318a40.078,40.078,0,0,1,39.174-32.133h91.146a40,40,0,0,1,0,80h-58.395l-22.094,80.031a205.732,205.732,0,0,1,104.037,179.09c0,26.814-6.775,82.949-20.135,166.846-10.826,67.986-23.5,138.689-32.225,186.031l0,0h0Z" transform="translate(-15963.996 -17835.008)" fill="#8787a9"/>
  <path id="Empty-2" data-name="Empty" d="M19035.225,18527.006h-306.25c-15.93-93.465-52.979-314.945-52.979-352.879a207.666,207.666,0,0,1,4.182-41.518,205.059,205.059,0,0,1,30.967-73.658,206.412,206.412,0,0,1,90.543-74.633,204.469,204.469,0,0,1,38.631-12,207.75,207.75,0,0,1,64.953-2.854l28.443-102.318a40.078,40.078,0,0,1,39.174-32.133h91.146a40,40,0,0,1,0,80h-58.395l-22.094,80.031a205.732,205.732,0,0,1,104.037,179.09c0,26.814-6.775,82.949-20.135,166.846-10.826,67.986-23.5,138.689-32.225,186.031l0,0h0Z" transform="translate(-16641.996 -17835.01)" fill="#8787a9"/>
  <path id="Empty-3" data-name="Empty" d="M19035.225,18527.006h-306.25c-15.93-93.465-52.979-314.945-52.979-352.879a207.666,207.666,0,0,1,4.182-41.518,205.059,205.059,0,0,1,30.967-73.658,206.412,206.412,0,0,1,90.543-74.633,204.469,204.469,0,0,1,38.631-12,207.75,207.75,0,0,1,64.953-2.854l28.443-102.318a40.078,40.078,0,0,1,39.174-32.133h91.146a40,40,0,0,1,0,80h-58.395l-22.094,80.031a205.732,205.732,0,0,1,104.037,179.09c0,26.814-6.775,82.949-20.135,166.846-10.826,67.986-23.5,138.689-32.225,186.031l0,0h0Z" transform="translate(-17319.996 -17835.01)" fill="#8787a9"/>
  <path id="Empty-4" data-name="Empty" d="M19035.225,18527.006h-306.25c-15.93-93.465-52.979-314.945-52.979-352.879a207.666,207.666,0,0,1,4.182-41.518,205.059,205.059,0,0,1,30.967-73.658,206.412,206.412,0,0,1,90.543-74.633,204.469,204.469,0,0,1,38.631-12,207.75,207.75,0,0,1,64.953-2.854l28.443-102.318a40.078,40.078,0,0,1,39.174-32.133h91.146a40,40,0,0,1,0,80h-58.395l-22.094,80.031a205.732,205.732,0,0,1,104.037,179.09c0,26.814-6.775,82.949-20.135,166.846-10.826,67.986-23.5,138.689-32.225,186.031l0,0h0Z" transform="translate(-17997.996 -17835.01)" fill="#8787a9"/>
  <path id="Empty-5" data-name="Empty" d="M19035.225,18527.006h-306.25c-15.93-93.465-52.979-314.945-52.979-352.879a207.666,207.666,0,0,1,4.182-41.518,205.059,205.059,0,0,1,30.967-73.658,206.412,206.412,0,0,1,90.543-74.633,204.469,204.469,0,0,1,38.631-12,207.75,207.75,0,0,1,64.953-2.854l28.443-102.318a40.078,40.078,0,0,1,39.174-32.133h91.146a40,40,0,0,1,0,80h-58.395l-22.094,80.031a205.732,205.732,0,0,1,104.037,179.09c0,26.814-6.775,82.949-20.135,166.846-10.826,67.986-23.5,138.689-32.225,186.031l0,0h0Z" transform="translate(-18675.996 -17835.006)" fill="#8787a9"/>
</svg>
