<svg xmlns="http://www.w3.org/2000/svg" xmlns:xlink="http://www.w3.org/1999/xlink" width="512" height="512" viewBox="0 0 512 512">
  <defs>
    <clipPath id="clip-frullatodiffra_favicon">
      <rect width="512" height="512"/>
    </clipPath>
  </defs>
  <g id="frullatodiffra_favicon" clip-path="url(#clip-frullatodiffra_favicon)">
    <rect id="Rettangolo_103" data-name="Rettangolo 103" width="512" height="512" rx="80" fill="#fcf9f7"/>
    <g id="Raggruppa_7" data-name="Raggruppa 7" transform="translate(-3144.311 300.003)">
      <path id="Tracciato_270" data-name="Tracciato 270" d="M565.986,533.269H462.941L496.81,364.387h96.735c-.536,4.156-1.126,8.567-1.756,13.112-3.239,23.4-7.771,52.311-13.471,85.927-3.626,21.36-7.775,44.858-12.332,69.84Zm31.885-221.151H507.29l22.786-113.627A135.249,135.249,0,0,1,574.014,238.8a133.947,133.947,0,0,1,23.857,73.312h0Z" transform="translate(2926.26 -371.272)" fill="#8787a9"/>
      <path id="Tracciato_271" data-name="Tracciato 271" d="M239.088,412H212.456l80.31-401.5A13.055,13.055,0,0,1,305.573,0h83.745a13.068,13.068,0,0,1,9.236,22.311,13.018,13.018,0,0,1-9.236,3.828H316.275L280.7,203.971H396.945a11.662,11.662,0,0,1,11.671,11.672v2.8a11.662,11.662,0,0,1-11.671,11.672H275.473L239.088,412Zm-62.138,0H150.465c-3.862-22.8-9.64-57.308-15.239-92.206-5.051-31.487-9.065-57.768-11.931-78.11C119.783,216.766,118,200.779,118,194.166c0-74.226,60.35-134.614,134.53-134.614a135.65,135.65,0,0,1,17.284,1.108l-5.152,25.7a110.066,110.066,0,0,0-12.132-.671A108.566,108.566,0,0,0,144.12,194.166c0,2.023.229,5.322.68,9.8h96.293l-5.239,26.139H148.037c1.716,12.516,3.992,28.009,6.764,46.048C160.531,313.452,168.4,361.7,176.95,412Z" transform="translate(3137.002 -250.003)" fill="#111154"/>
    </g>
  </g>
</svg>
